<svg width="100" height="25" viewBox="0 0 100 25" fill="none" xmlns="http://www.w3.org/2000/svg">
<path d="M43.3011 14.6944C43.2829 17.621 43.2387 20.423 43.3029 23.2212C43.3299 24.3961 43.0122 24.7624 42.0939 24.6529C41.326 24.5613 40.5452 24.6341 39.7096 24.6341C39.7096 18.6637 39.7096 12.8431 39.7096 6.53619C40.5388 7.53047 41.2322 8.18968 41.7478 9.0173C42.7084 10.559 43.906 11.1444 45.4248 10.7545C46.1693 10.5634 46.6437 10.9036 47.1192 11.6244C49.7866 15.6678 52.4979 19.6671 55.1896 23.6861C55.328 23.8929 55.4238 24.1432 55.6685 24.63C54.0917 24.63 52.7023 24.6908 51.3213 24.5859C50.9877 24.5606 50.6182 24.0474 50.373 23.6559C48.579 20.7911 46.8061 17.906 45.0414 15.0136C44.5566 14.2191 44.0479 13.809 43.3011 14.6944Z" fill="#F5F5F5"/>
<path d="M70.503 20.6203C71.0855 20.8722 71.663 20.9931 72.0176 21.4055C72.794 22.3083 73.4574 23.3588 74.3247 24.5692C70.2591 24.5692 66.4796 24.5692 62.6191 24.5692C62.6191 18.5076 62.6191 12.493 62.6191 6.06079C63.609 7.26641 64.4537 8.17772 65.1802 9.21487C65.8336 10.1477 66.5681 10.454 67.5501 10.4099C69.4628 10.324 71.3797 10.3847 73.3754 10.3847C73.3754 11.7572 73.3754 12.9846 73.3754 14.424C71.3747 14.424 69.4231 14.4907 67.4765 14.3966C66.4638 14.3477 66.0618 14.6568 66.1532 15.9906C66.2544 17.4671 66.1763 18.9623 66.1763 20.6216C67.6733 20.6216 69.0351 20.6216 70.503 20.6203Z" fill="#F5F5F5"/>
<path d="M94.6852 18.0918C95.0652 17.484 95.372 17.2127 95.8711 17.821C96.5356 18.631 97.269 19.3551 98.0207 20.1679C96.1466 23.1997 93.7999 24.4401 91.0944 24.6021C88.556 24.7542 86.0072 24.6323 83.4631 24.6546C82.9212 24.6593 82.5703 24.5658 82.5743 23.7341C82.5977 18.8114 82.5938 13.8885 82.605 8.96573C82.6052 8.89043 82.6816 8.81541 82.7931 8.61041C83.8792 9.92061 84.9806 11.1793 85.9981 12.5338C86.2096 12.8153 86.145 13.4516 86.148 13.925C86.1617 16.0832 86.154 18.2417 86.154 20.5432C89.217 20.5278 92.253 21.2303 94.6852 18.0918Z" fill="#F5F5F5"/>
<path d="M30.6802 5.79168C30.6801 12.1081 30.6801 18.2794 30.6801 24.6338C29.5832 24.6338 28.6142 24.693 27.6566 24.5906C27.4277 24.5662 27.056 24.0045 27.0546 23.6877C27.0202 16.1529 27.0183 8.61777 27.0564 1.08305C27.0582 0.734666 27.464 0.124553 27.7211 0.0905819C28.6421 -0.0310793 29.58 0.0429198 30.6802 0.0429198C30.6802 2.00925 30.6802 3.82795 30.6802 5.79168Z" fill="#F5F5F5"/>
<path d="M9.20433 17.448C11.2482 12.1116 13.2922 6.89417 15.2284 1.61672C15.6987 0.335032 16.2927 -0.124001 17.3697 0.0279473C18.0182 0.119428 18.6821 0.0447557 19.6678 0.0447557C16.3242 8.53266 13.0937 16.7334 9.83729 25C7.954 22.4781 7.83633 20.9519 9.20433 17.448Z" fill="#F5F5F5"/>
<path d="M96.241 2.33674C98.9306 4.88776 100.028 8.2301 99.9995 12.4791C98.8911 12.4791 97.849 12.5281 96.8153 12.4352C96.6234 12.4179 96.3561 11.8519 96.308 11.5008C95.6279 6.53911 93.506 3.98119 89.4632 4.24535C86.7056 4.42553 84.7229 3.32004 83.0377 0.871895C82.9404 0.730556 82.8491 0.582929 82.7664 0.455671C82.8275 0.317537 82.8651 0.165873 82.8982 0.167307C86.3682 0.319451 89.8448 0.375225 93.3031 0.714562C94.2866 0.811073 95.2168 1.73458 96.241 2.33674Z" fill="#F5F5F5"/>
<path d="M44.5362 4.14884C43.5028 4.32036 42.783 3.91852 42.1366 3.07797C41.4203 2.14655 40.6121 1.32252 39.9075 0.237768C43.3505 0.367877 46.8744 -0.859044 50.0578 1.66412C51.5486 2.84576 52.3044 4.91811 52.11 7.29163C51.1211 7.29163 50.1145 7.31311 49.1097 7.27151C48.9319 7.26412 48.6311 7.0202 48.6069 6.84046C48.2635 4.29257 46.6651 4.2765 45.1127 4.15683C44.9564 4.14476 44.7992 4.15144 44.5362 4.14884Z" fill="#F5F5F5"/>
<path d="M73.9838 2.79142C74.0999 3.88628 73.7419 4.15396 72.9838 4.1338C70.9066 4.07856 68.8271 4.15102 66.7504 4.08456C66.2887 4.06979 65.7529 3.81635 65.393 3.45691C64.4406 2.5056 63.5659 1.43603 62.4333 0.15741C66.4679 0.15741 70.1588 0.15741 73.984 0.15741C73.984 1.04653 73.984 1.85626 73.9838 2.79142Z" fill="#F5F5F5"/>
<path d="M0.167552 0.12898C3.48608 -0.0626253 3.48717 -0.0632628 4.83069 3.44921C5.27811 4.61894 5.71842 5.79281 6.27085 7.25243C5.00194 7.25243 3.93111 7.27673 2.86242 7.22847C2.6845 7.22043 2.44554 6.93941 2.35412 6.71169C1.55552 4.7225 0.77971 2.71924 0.0144571 0.710134C-0.0363491 0.576748 0.0544024 0.361356 0.167552 0.12898Z" fill="#F5F5F5"/>
</svg>
